<svg xmlns="http://www.w3.org/2000/svg" xmlns:xlink="http://www.w3.org/1999/xlink" viewBox="0 0 44.156 28.375"><defs><clipPath id="b" clipPathUnits="userSpaceOnUse"><path d="M0 0h4283v4208H0z"/></clipPath><clipPath id="c" clipPathUnits="userSpaceOnUse"><path d="M2141.49-1246.28l.31 2103.475 2141.17-.32-.31-2103.475z"/></clipPath><clipPath id="e" clipPathUnits="userSpaceOnUse"><path d="M0 0h4283v4208H0z"/></clipPath><clipPath id="f" clipPathUnits="userSpaceOnUse"><path d="M0-1246.28L.316 857.195l2141.174-.32-.32-2103.475z"/></clipPath><clipPath id="h" clipPathUnits="userSpaceOnUse"><path d="M3212 857h1071v2104H3212z"/></clipPath><clipPath id="j" clipPathUnits="userSpaceOnUse"><path d="M1070.74 857.52l.32 2103.47 2141.17-.32-.32-2103.475z"/></clipPath><clipPath id="l" clipPathUnits="userSpaceOnUse"><path d="M0 857h1071v2104H0z"/></clipPath><clipPath id="n" clipPathUnits="userSpaceOnUse"><path d="M0 0h4283v4208H0z"/></clipPath><clipPath id="o" clipPathUnits="userSpaceOnUse"><path d="M2141.49 2961.32l.31 2103.47 2141.17-.32-.31-2103.48z"/></clipPath><clipPath id="q" clipPathUnits="userSpaceOnUse"><path d="M0 0h4283v4208H0z"/></clipPath><clipPath id="r" clipPathUnits="userSpaceOnUse"><path d="M0 2961.32l.316 2103.47 2141.174-.32-.32-2103.48z"/></clipPath><clipPath id="u" clipPathUnits="userSpaceOnUse"><path d="M0 0h4283v4208H0z"/></clipPath><clipPath id="v" clipPathUnits="userSpaceOnUse"><path d="M2141.49-1246.28l.31 2103.475 2141.17-.32-.31-2103.475z"/></clipPath><clipPath id="w" clipPathUnits="userSpaceOnUse"><path d="M0 0h4283v4208H0z"/></clipPath><clipPath id="x" clipPathUnits="userSpaceOnUse"><path d="M0-1246.28L.316 857.195l2141.174-.32-.32-2103.475z"/></clipPath><clipPath id="y" clipPathUnits="userSpaceOnUse"><path d="M3212 857h1071v2104H3212z"/></clipPath><clipPath id="z" clipPathUnits="userSpaceOnUse"><path d="M1070.74 857.52l.32 2103.47 2141.17-.32-.32-2103.475z"/></clipPath><clipPath id="A" clipPathUnits="userSpaceOnUse"><path d="M0 857h1071v2104H0z"/></clipPath><clipPath id="B" clipPathUnits="userSpaceOnUse"><path d="M0 0h4283v4208H0z"/></clipPath><clipPath id="C" clipPathUnits="userSpaceOnUse"><path d="M2141.49 2961.32l.31 2103.47 2141.17-.32-.31-2103.48z"/></clipPath><clipPath id="D" clipPathUnits="userSpaceOnUse"><path d="M0 0h4283v4208H0z"/></clipPath><clipPath id="E" clipPathUnits="userSpaceOnUse"><path d="M0 2961.32l.316 2103.47 2141.174-.32-.32-2103.48z"/></clipPath><clipPath id="G" clipPathUnits="userSpaceOnUse"><path d="M0 0h4283v4208H0z"/></clipPath><clipPath id="H" clipPathUnits="userSpaceOnUse"><path d="M2141.49-1246.28l.31 2103.475 2141.17-.32-.31-2103.475z"/></clipPath><clipPath id="I" clipPathUnits="userSpaceOnUse"><path d="M0 0h4283v4208H0z"/></clipPath><clipPath id="J" clipPathUnits="userSpaceOnUse"><path d="M0-1246.28L.316 857.195l2141.174-.32-.32-2103.475z"/></clipPath><clipPath id="K" clipPathUnits="userSpaceOnUse"><path d="M3212 857h1071v2104H3212z"/></clipPath><clipPath id="L" clipPathUnits="userSpaceOnUse"><path d="M1070.74 857.52l.32 2103.47 2141.17-.32-.32-2103.475z"/></clipPath><clipPath id="M" clipPathUnits="userSpaceOnUse"><path d="M0 857h1071v2104H0z"/></clipPath><clipPath id="N" clipPathUnits="userSpaceOnUse"><path d="M0 0h4283v4208H0z"/></clipPath><clipPath id="O" clipPathUnits="userSpaceOnUse"><path d="M2141.49 2961.32l.31 2103.47 2141.17-.32-.31-2103.48z"/></clipPath><clipPath id="P" clipPathUnits="userSpaceOnUse"><path d="M0 0h4283v4208H0z"/></clipPath><clipPath id="Q" clipPathUnits="userSpaceOnUse"><path d="M0 2961.32l.316 2103.47 2141.174-.32-.32-2103.48z"/></clipPath><clipPath id="S" clipPathUnits="userSpaceOnUse"><path d="M0 0h4283v4208H0z"/></clipPath><clipPath id="T" clipPathUnits="userSpaceOnUse"><path d="M2141.49-1246.28l.31 2103.475 2141.17-.32-.31-2103.475z"/></clipPath><clipPath id="U" clipPathUnits="userSpaceOnUse"><path d="M0 0h4283v4208H0z"/></clipPath><clipPath id="V" clipPathUnits="userSpaceOnUse"><path d="M0-1246.28L.316 857.195l2141.174-.32-.32-2103.475z"/></clipPath><clipPath id="W" clipPathUnits="userSpaceOnUse"><path d="M3212 857h1071v2104H3212z"/></clipPath><clipPath id="X" clipPathUnits="userSpaceOnUse"><path d="M1070.74 857.52l.32 2103.47 2141.17-.32-.32-2103.475z"/></clipPath><clipPath id="Y" clipPathUnits="userSpaceOnUse"><path d="M0 857h1071v2104H0z"/></clipPath><clipPath id="Z" clipPathUnits="userSpaceOnUse"><path d="M0 0h4283v4208H0z"/></clipPath><clipPath id="aa" clipPathUnits="userSpaceOnUse"><path d="M2141.49 2961.32l.31 2103.47 2141.17-.32-.31-2103.48z"/></clipPath><clipPath id="ab" clipPathUnits="userSpaceOnUse"><path d="M0 0h4283v4208H0z"/></clipPath><clipPath id="ac" clipPathUnits="userSpaceOnUse"><path d="M0 2961.32l.316 2103.47 2141.174-.32-.32-2103.48z"/></clipPath><pattern patternTransform="matrix(.35278 0 0 -.35278 100.522 32.443)" id="ag" xlink:href="#a"/><pattern id="a" height="420.76" width="428.297" y="0" x="0" patternUnits="userSpaceOnUse" patternTransform="matrix(10 0 0 10 -2739 680)"><g clip-path="url(#b)" transform="scale(.1)"><g clip-path="url(#c)"><path d="M2141 0v858h1307v-1h835V0" fill="url(#d)"/></g></g><g clip-path="url(#e)" transform="scale(.1)"><g clip-path="url(#f)"><path d="M0 0v858h1306v-1h836V0" fill="url(#g)"/></g></g><g clip-path="url(#h)" transform="scale(.1)"><path d="M3212 857h1071v2104H3212V857z" fill="url(#i)"/></g><g clip-path="url(#j)" transform="scale(.1)"><path d="M1070.74 857.52l.32 2103.47 2141.17-.32-.32-2103.475-2141.17.325" fill="url(#k)"/></g><g clip-path="url(#l)" transform="scale(.1)"><path d="M0 857h1071v2104H0V857z" fill="url(#m)"/></g><g clip-path="url(#n)" transform="scale(.1)"><g clip-path="url(#o)"><path d="M4207 2960v1H2141v1247h2142V2960" fill="url(#p)"/></g></g><g clip-path="url(#q)" transform="scale(.1)"><g clip-path="url(#r)"><path d="M2065 2960v1H0v1247h2142V2960" fill="url(#s)"/></g></g></pattern><pattern patternTransform="matrix(.35278 0 0 -.35278 100.522 32.443)" id="ae" xlink:href="#t"/><pattern id="t" height="420.76" width="428.297" y="0" x="0" patternUnits="userSpaceOnUse" patternTransform="matrix(10 0 0 10 -2739 680)"><g clip-path="url(#u)" transform="scale(.1)"><g clip-path="url(#v)"><path d="M2141 0v858h1307v-1h835V0" fill="url(#d)"/></g></g><g clip-path="url(#w)" transform="scale(.1)"><g clip-path="url(#x)"><path d="M0 0v858h1306v-1h836V0" fill="url(#g)"/></g></g><g clip-path="url(#y)" transform="scale(.1)"><path d="M3212 857h1071v2104H3212V857z" fill="url(#i)"/></g><g clip-path="url(#z)" transform="scale(.1)"><path d="M1070.74 857.52l.32 2103.47 2141.17-.32-.32-2103.475-2141.17.325" fill="url(#k)"/></g><g clip-path="url(#A)" transform="scale(.1)"><path d="M0 857h1071v2104H0V857z" fill="url(#m)"/></g><g clip-path="url(#B)" transform="scale(.1)"><g clip-path="url(#C)"><path d="M4207 2960v1H2141v1247h2142V2960" fill="url(#p)"/></g></g><g clip-path="url(#D)" transform="scale(.1)"><g clip-path="url(#E)"><path d="M2065 2960v1H0v1247h2142V2960" fill="url(#s)"/></g></g></pattern><pattern patternTransform="matrix(.35278 0 0 -.35278 100.522 32.443)" id="ad" xlink:href="#F"/><pattern id="F" height="420.76" width="428.297" y="0" x="0" patternUnits="userSpaceOnUse" patternTransform="matrix(10 0 0 10 -2739 680)"><g clip-path="url(#G)" transform="scale(.1)"><g clip-path="url(#H)"><path d="M2141 0v858h1307v-1h835V0" fill="url(#d)"/></g></g><g clip-path="url(#I)" transform="scale(.1)"><g clip-path="url(#J)"><path d="M0 0v858h1306v-1h836V0" fill="url(#g)"/></g></g><g clip-path="url(#K)" transform="scale(.1)"><path d="M3212 857h1071v2104H3212V857z" fill="url(#i)"/></g><g clip-path="url(#L)" transform="scale(.1)"><path d="M1070.74 857.52l.32 2103.47 2141.17-.32-.32-2103.475-2141.17.325" fill="url(#k)"/></g><g clip-path="url(#M)" transform="scale(.1)"><path d="M0 857h1071v2104H0V857z" fill="url(#m)"/></g><g clip-path="url(#N)" transform="scale(.1)"><g clip-path="url(#O)"><path d="M4207 2960v1H2141v1247h2142V2960" fill="url(#p)"/></g></g><g clip-path="url(#P)" transform="scale(.1)"><g clip-path="url(#Q)"><path d="M2065 2960v1H0v1247h2142V2960" fill="url(#s)"/></g></g></pattern><pattern patternTransform="matrix(.35278 0 0 -.35278 100.522 32.443)" id="af" xlink:href="#R"/><pattern id="R" height="420.76" width="428.297" y="0" x="0" patternUnits="userSpaceOnUse" patternTransform="matrix(10 0 0 10 -2739 680)"><g clip-path="url(#S)" transform="scale(.1)"><g clip-path="url(#T)"><path d="M2141 0v858h1307v-1h835V0" fill="url(#d)"/></g></g><g clip-path="url(#U)" transform="scale(.1)"><g clip-path="url(#V)"><path d="M0 0v858h1306v-1h836V0" fill="url(#g)"/></g></g><g clip-path="url(#W)" transform="scale(.1)"><path d="M3212 857h1071v2104H3212V857z" fill="url(#i)"/></g><g clip-path="url(#X)" transform="scale(.1)"><path d="M1070.74 857.52l.32 2103.47 2141.17-.32-.32-2103.475-2141.17.325" fill="url(#k)"/></g><g clip-path="url(#Y)" transform="scale(.1)"><path d="M0 857h1071v2104H0V857z" fill="url(#m)"/></g><g clip-path="url(#Z)" transform="scale(.1)"><g clip-path="url(#aa)"><path d="M4207 2960v1H2141v1247h2142V2960" fill="url(#p)"/></g></g><g clip-path="url(#ab)" transform="scale(.1)"><g clip-path="url(#ac)"><path d="M2065 2960v1H0v1247h2142V2960" fill="url(#s)"/></g></g></pattern><linearGradient id="d" spreadMethod="pad" gradientTransform="matrix(-2884.98 1186.43 1666.05 2053.95 4654.72 -787.915)" gradientUnits="userSpaceOnUse" y2="0" x2="1" y1="0" x1="0"><stop offset="0" stop-color="#fcce64"/><stop offset=".5" stop-color="#c59836"/><stop offset="1" stop-color="#936819"/></linearGradient><linearGradient id="g" spreadMethod="pad" gradientTransform="matrix(-2884.98 1186.43 1666.05 2053.95 2513.23 -787.915)" gradientUnits="userSpaceOnUse" y2="0" x2="1" y1="0" x1="0"><stop offset="0" stop-color="#fcce64"/><stop offset=".5" stop-color="#c59836"/><stop offset="1" stop-color="#936819"/></linearGradient><linearGradient id="i" spreadMethod="pad" gradientTransform="matrix(-2884.98 1186.43 1666.05 2053.95 5725.46 1315.88)" gradientUnits="userSpaceOnUse" y2="0" x2="1" y1="0" x1="0"><stop offset="0" stop-color="#fcce64"/><stop offset=".5" stop-color="#c59836"/><stop offset="1" stop-color="#936819"/></linearGradient><linearGradient id="k" spreadMethod="pad" gradientTransform="matrix(-2884.98 1186.43 1666.05 2053.95 3583.98 1315.88)" gradientUnits="userSpaceOnUse" y2="0" x2="1" y1="0" x1="0"><stop offset="0" stop-color="#fcce64"/><stop offset=".5" stop-color="#c59836"/><stop offset="1" stop-color="#936819"/></linearGradient><linearGradient id="m" spreadMethod="pad" gradientTransform="matrix(-2884.98 1186.43 1666.05 2053.95 1442.49 1315.88)" gradientUnits="userSpaceOnUse" y2="0" x2="1" y1="0" x1="0"><stop offset="0" stop-color="#fcce64"/><stop offset=".5" stop-color="#c59836"/><stop offset="1" stop-color="#936819"/></linearGradient><linearGradient id="p" spreadMethod="pad" gradientTransform="matrix(-2884.98 1186.43 1666.05 2053.95 4654.72 3419.68)" gradientUnits="userSpaceOnUse" y2="0" x2="1" y1="0" x1="0"><stop offset="0" stop-color="#fcce64"/><stop offset=".5" stop-color="#c59836"/><stop offset="1" stop-color="#936819"/></linearGradient><linearGradient id="s" spreadMethod="pad" gradientTransform="matrix(-2884.98 1186.43 1666.05 2053.95 2513.23 3419.68)" gradientUnits="userSpaceOnUse" y2="0" x2="1" y1="0" x1="0"><stop offset="0" stop-color="#fcce64"/><stop offset=".5" stop-color="#c59836"/><stop offset="1" stop-color="#936819"/></linearGradient></defs><path d="M239.75 39.734c-.43-.134-.743-.258-.743-.63 0-.314.257-.438.572-.438.353 0 .724.181 1.115.505l.61-.772c-.42-.41-1.067-.696-1.802-.696-.982 0-1.782.544-1.782 1.554s.724 1.287 1.439 1.497c.41.124.753.22.753.591 0 .362-.257.505-.61.505-.467 0-1.058-.257-1.392-.467l-.362.934c.267.2.972.506 1.82.506 1.106 0 1.86-.544 1.86-1.621 0-.992-.782-1.249-1.478-1.468m-2.955-3.995c-.163-.01-.391.01-.486.03l-.458 2.316.686.219c.4-.63.954-1.573.954-2.05 0-.39-.343-.496-.696-.515m-3.26 5.377c0 .381-.306.725-.763.725-.706 0-.886-.668-.886-1.478 0-.848.238-1.687 1.077-1.687.238 0 .43.038.572.104zm1.316.582v-5.644h-1.316v1.735a2.145 2.145 0 00-.62-.086c-1.487 0-2.345 1.135-2.345 2.765 0 1.153.343 2.355 1.878 2.355.534 0 .972-.22 1.249-.64h.048l.076.497h1.125l-.095-.982m-6.14.982v-3.003c.019-.506.324-.83.801-.83.248 0 .477.067.677.172l.238-1.144c-.229-.124-.524-.172-.79-.172-.449 0-.916.267-1.145.83l-.124-.687h-1.077l.095.84v3.994h1.325m-4.442-4.014c.62 0 .839.591.839 1.62 0 .973-.248 1.564-.858 1.564-.724 0-.848-.867-.848-1.725 0-.868.266-1.46.867-1.46zm-.086 4.157c1.278 0 2.288-.868 2.288-2.68 0-2.211-1.42-2.44-2.145-2.44-1 0-2.268.582-2.268 2.574 0 1.726.81 2.546 2.125 2.546m-3.174-5.987c.248 0 .629.095.896.229l.314-.878c-.333-.19-.972-.333-1.401-.333-1.544 0-1.716.991-1.716 1.802v7.026h1.325v-5.797h1.373v-1.039h-1.373v-.314c0-.477.182-.696.582-.696m-6.32 5.253c.21.428.59.724 1.296.724 1.42 0 2.098-1.096 2.098-2.84 0-.726-.144-1.507-.325-2.127h-1.296c.162.63.314 1.43.314 2.164 0 .801-.124 1.783-.82 1.783-.505 0-.524-.4-.524-.944v-3.003h-1.325v3.156c0 .438-.296.791-.724.791-.477 0-.534-.381-.534-.906v-3.04h-1.325v3.279c0 1.134.59 1.687 1.649 1.687.61 0 1.106-.19 1.515-.724m-5.672-.954c0 .353-.285.715-.78.715-.706 0-.868-.677-.868-1.449 0-.934.266-1.716 1.048-1.716.248 0 .476.048.6.105zm-.438-3.432c-1.687 0-2.526 1.096-2.526 2.775 0 1.286.467 2.335 1.849 2.335.515 0 .991-.19 1.277-.63l.049.01.066.487h1.135l-.095-.963v-3.66c-.725-.267-1.43-.353-1.755-.353m-2.66.171c-.228-.124-.524-.171-.791-.171-.448 0-.915.267-1.144.83l-.124-.687h-1.077l.095.839v3.994h1.325v-3.003c.02-.505.325-.83.802-.83.247 0 .476.067.676.172l.239-1.144m-5.91-.515c.524 0 .934.296 1.324.801l.963-.696c-.6-.915-1.43-1.239-2.22-1.239-1.384 0-2.928.83-2.928 3.327 0 2.155 1.125 3.242 2.87 3.242.848 0 1.544-.277 2.202-.887l-.696-.887c-.448.41-.916.658-1.43.658-1.068 0-1.544-.858-1.544-2.212 0-1.363.59-2.107 1.458-2.107" fill="url(#ad)" transform="translate(-197.148 -28.056)"/><path d="M232 49.474c0 .353-.286.715-.782.715-.705 0-.867-.677-.867-1.449 0-.934.266-1.716 1.048-1.716.248 0 .477.048.6.105zm1.316-3.08c-.725-.266-1.43-.352-1.755-.352-1.687 0-2.526 1.096-2.526 2.774 0 1.287.467 2.336 1.85 2.336.514 0 .99-.19 1.277-.63l.048.01.066.486h1.135l-.095-.962v-3.661m-5.196 4.623V47.72c0-1.144-.572-1.678-1.516-1.678-.638 0-1.115.267-1.439.715l-.095-.572h-1.106l.086.896v3.937h1.325V47.92c0-.457.324-.858.83-.858.504 0 .59.39.59.915v3.041h1.325m-5.243-4.833h-1.325v4.833h1.325v-4.833m-.667-.686c.438 0 .743-.286.743-.696 0-.382-.305-.696-.743-.696-.439 0-.734.314-.734.696 0 .41.286.696.734.696m-3.003 5.52v-3.003c.02-.506.324-.83.8-.83.249 0 .478.067.678.172l.238-1.144c-.229-.124-.524-.172-.791-.172-.448 0-.915.267-1.144.83l-.124-.687h-1.077l.095.839v3.994h1.325m-3.86-1.544c0 .353-.286.715-.782.715-.706 0-.868-.677-.868-1.449 0-.934.267-1.716 1.049-1.716.248 0 .477.048.6.105zm.21 1.058l.066.486h1.134l-.095-.962v-3.661c-.725-.267-1.43-.353-1.754-.353-1.687 0-2.526 1.096-2.526 2.774 0 1.287.467 2.336 1.849 2.336.515 0 .992-.19 1.277-.63l.048.01m-5.7-5.853l-1.487 3.966h-.03l-1.467-3.966h-1.468l-.362 6.34h1.258l.21-4.033h.028l1.297 3.356h.982l1.325-3.413h.028l.21 4.09h1.259l-.344-6.34h-1.44" fill="url(#ae)" transform="translate(-197.148 -28.056)"/><path d="M233.923 28.056H204.53v.415h29.394v-.415m-26.211 1.801h.895v3.585c-.626.598-.895 1.022-.895 1.022zm1.31 0h1.271v2.272c-.505.324-.926.644-1.272.94zm1.685 0h1.272v1.352c-.468.215-.89.44-1.272.665zm1.686 0h1.271v.689c-.453.15-.876.311-1.27.48zm1.686 0h2.368c-.864.15-1.65.34-2.368.558zm10.399 0v.549a19.579 19.579 0 00-2.338-.549zm.414 0h1.271v1.156a16.418 16.418 0 00-1.27-.477zm1.686 0h1.271v2a14.171 14.171 0 00-1.271-.661zm1.686 0h1.27v3.186a11.67 11.67 0 00-1.27-.933zm1.685 0h.926v4.607s-.279-.437-.926-1.05zm-23.68 5.497h1.674c1.062-1.115 11.163-11.096 22.556 0h1.684v-5.946h1.74v-.482H204.53v.482h1.74v5.946" fill="url(#af)" transform="translate(-197.148 -28.056)"/><path d="M234.615 55.05h1.135v-.437h-1.135v-.794h1.302v-.437h-1.81v2.988h1.823v-.437h-1.315v-.883m-2.188.91c-.12.03-.27.052-.485.052-.614 0-.972-.401-.972-1.134 0-.693.362-1.139 1.108-1.139.287 0 .534.084.729.181v-.441a1.857 1.857 0 00-.795-.16c-.949 0-1.558.557-1.558 1.585 0 1.077.622 1.528 1.43 1.528.415 0 .768-.07 1.042-.195v-1.439h-.5v1.161m-4.505-.022h-.384V53.81h.393c.693 0 1.046.357 1.046 1.041 0 .76-.318 1.086-1.055 1.086zm.066-2.555h-.948v2.988h.918c1.033 0 1.536-.503 1.536-1.527 0-.94-.539-1.461-1.506-1.461m-2.7 2.988h.503v-2.988h-.503v2.988m-2.268-1.633h-.45v-.923h.44c.359 0 .61.11.61.446 0 .309-.23.477-.6.477zm1.103-.517c0-.574-.375-.838-1.108-.838h-.949v2.988h.503v-1.214h.46l.728 1.214h.57l-.817-1.36c.361-.137.613-.432.613-.79m-4.218 1.717h-.53v-.918h.52c.336 0 .592.146.592.46 0 .29-.216.458-.582.458zm-.53-2.132h.389c.365 0 .538.137.538.393 0 .247-.173.406-.481.406h-.446zm.914.967a.646.646 0 00.52-.649c0-.485-.322-.741-1.063-.741h-.874v2.988h.993c.697 0 1.13-.265 1.13-.883 0-.397-.309-.68-.706-.715m-3.57-.035h-.01l-.714-1.355h-.565l1.01 1.818v1.17h.503V55.2l1.011-1.818h-.525l-.71 1.355m-3.23 0h-.451v-.923h.442c.357 0 .609.11.609.446 0 .309-.23.477-.6.477zm1.103-.517c0-.574-.375-.838-1.108-.838h-.949v2.988h.503v-1.214h.46l.728 1.214h.569l-.817-1.36c.362-.137.614-.432.614-.79m-4.325.517h-.45v-.923h.441c.358 0 .61.11.61.446 0 .309-.23.477-.6.477zm1.104-.517c0-.574-.375-.838-1.108-.838h-.95v2.988h.504v-1.214h.46l.728 1.214h.569l-.817-1.36c.362-.137.614-.432.614-.79m-4.873.998l.468-1.342h.01l.471 1.342zm.199-1.836l-1.064 2.988h.504l.251-.724h1.174l.252.724h.525l-1.06-2.988h-.582m-3.653 1.491c0-.701.415-1.13 1.077-1.13.255 0 .48.054.697.137v-.441c-.22-.07-.481-.12-.786-.12-.808 0-1.51.486-1.51 1.572 0 .892.482 1.54 1.54 1.54.336 0 .593-.048.818-.119v-.428c-.27.089-.477.124-.728.124-.764 0-1.108-.472-1.108-1.135" fill="url(#ag)" transform="translate(-197.148 -28.056)"/></svg>